<svg xmlns="http://www.w3.org/2000/svg" xmlns:xlink="http://www.w3.org/1999/xlink" width="1066" height="242" viewBox="0 0 1066 242">
    <defs>
        <filter id="f21x2sitqa" width="144.4%" height="144.4%" x="-11.1%" y="-11.1%" filterUnits="objectBoundingBox">
            <feOffset dx="1" dy="1" in="SourceAlpha" result="shadowOffsetOuter1"/>
            <feGaussianBlur in="shadowOffsetOuter1" result="shadowBlurOuter1" stdDeviation=".5"/>
            <feColorMatrix in="shadowBlurOuter1" values="0 0 0 0 0 0 0 0 0 0 0 0 0 0 0 0 0 0 0.268247378 0"/>
        </filter>
        <filter id="3kobez9t0c" width="144.4%" height="144.4%" x="-11.1%" y="-11.1%" filterUnits="objectBoundingBox">
            <feOffset dx="1" dy="1" in="SourceAlpha" result="shadowOffsetOuter1"/>
            <feGaussianBlur in="shadowOffsetOuter1" result="shadowBlurOuter1" stdDeviation=".5"/>
            <feColorMatrix in="shadowBlurOuter1" values="0 0 0 0 0 0 0 0 0 0 0 0 0 0 0 0 0 0 0.268247378 0"/>
        </filter>
        <filter id="nh6atebyqe" width="144.4%" height="144.4%" x="-11.1%" y="-11.1%" filterUnits="objectBoundingBox">
            <feOffset dx="1" dy="1" in="SourceAlpha" result="shadowOffsetOuter1"/>
            <feGaussianBlur in="shadowOffsetOuter1" result="shadowBlurOuter1" stdDeviation=".5"/>
            <feColorMatrix in="shadowBlurOuter1" values="0 0 0 0 0 0 0 0 0 0 0 0 0 0 0 0 0 0 0.268247378 0"/>
        </filter>
        <filter id="ectrlrudng" width="144.4%" height="144.4%" x="-11.1%" y="-11.1%" filterUnits="objectBoundingBox">
            <feOffset dx="1" dy="1" in="SourceAlpha" result="shadowOffsetOuter1"/>
            <feGaussianBlur in="shadowOffsetOuter1" result="shadowBlurOuter1" stdDeviation=".5"/>
            <feColorMatrix in="shadowBlurOuter1" values="0 0 0 0 0 0 0 0 0 0 0 0 0 0 0 0 0 0 0.268247378 0"/>
        </filter>
        <filter id="wil0fbm6ji" width="144.4%" height="144.4%" x="-11.1%" y="-11.1%" filterUnits="objectBoundingBox">
            <feOffset dx="1" dy="1" in="SourceAlpha" result="shadowOffsetOuter1"/>
            <feGaussianBlur in="shadowOffsetOuter1" result="shadowBlurOuter1" stdDeviation=".5"/>
            <feColorMatrix in="shadowBlurOuter1" values="0 0 0 0 0 0 0 0 0 0 0 0 0 0 0 0 0 0 0.268247378 0"/>
        </filter>
        <circle id="tfmda9twxb" cx="168.5" cy="4.5" r="4.5"/>
        <circle id="qzvuxbgkfd" cx="168.5" cy="4.5" r="4.5"/>
        <circle id="gx9k21gc0f" cx="168.5" cy="4.5" r="4.5"/>
        <circle id="97jxwzdvhh" cx="168.5" cy="4.5" r="4.5"/>
        <circle id="n44gjgsp3j" cx="40.5" cy="159.5" r="4.5"/>
    </defs>
    <g fill="none" fill-rule="evenodd">
        <g>
            <g>
                <g transform="translate(-187 -213) translate(188 213) translate(40)">
                    <g fill="#544F85" font-family="Roboto-Regular, Roboto" font-size="14">
                        <text transform="translate(18.75 62)">
                            <tspan x="29.853" y="15">2020. 12. 2. - 12. 7.</tspan>
                        </text>
                    </g>
                    <rect width="215" height="57" x=".5" y=".5" fill="#F5F5F5" stroke="#8F8ABF" rx="4"/>
                    <g fill="#544F85" font-family="NotoSansCJKkr-Bold, Noto Sans CJK KR" font-size="16" font-weight="bold">
                        <text transform="translate(3 16)">
                            <tspan x="35.128" y="19">우수사례 전시관 심사</tspan>
                        </text>
                    </g>
                </g>
                <g transform="translate(-187 -213) translate(188 213) translate(808)">
                    <g fill="#544F85" font-family="Roboto-Regular, Roboto" font-size="14">
                        <text transform="translate(11.25 62)">
                            <tspan x="32.733" y="15">2020. 12. 8. </tspan> <tspan x="113.076" y="15" font-family="AppleSDGothicNeo-Regular, Apple SD Gothic Neo">오후</tspan> <tspan x="137.296" y="15"> 2</tspan> <tspan x="148.657" y="15" font-family="AppleSDGothicNeo-Regular, Apple SD Gothic Neo">시</tspan>
                        </text>
                    </g>
                    <rect width="215" height="57" x=".5" y=".5" fill="#F5F5F5" stroke="#8F8ABF" rx="4"/>
                    <g fill="#544F85" font-family="NotoSansCJKkr-Bold, Noto Sans CJK KR" font-size="16" font-weight="bold">
                        <text transform="translate(49.5 16)">
                            <tspan x="19.884" y="19">정책 토론회</tspan>
                        </text>
                    </g>
                </g>
                <g transform="translate(-187 -213) translate(188 213) translate(424)">
                    <g fill="#544F85" font-family="Roboto-Regular, Roboto" font-size="14">
                        <text transform="translate(11.25 62)">
                            <tspan x="32.733" y="15">2020. 12. 7. </tspan> <tspan x="113.076" y="15" font-family="AppleSDGothicNeo-Regular, Apple SD Gothic Neo">오후</tspan> <tspan x="137.296" y="15"> 2</tspan> <tspan x="148.657" y="15" font-family="AppleSDGothicNeo-Regular, Apple SD Gothic Neo">시</tspan>
                        </text>
                    </g>
                    <rect width="215" height="57" x=".5" y=".5" fill="#F5F5F5" stroke="#8F8ABF" rx="4"/>
                    <g fill="#544F85" font-family="NotoSansCJKkr-Bold, Noto Sans CJK KR" font-size="16" font-weight="bold">
                        <text transform="translate(24.75 16)">
                            <tspan x="28.098" y="19">박람회 개막 포럼</tspan>
                        </text>
                    </g>
                </g>
                <g transform="translate(-187 -213) translate(188 213) translate(40 161)">
                    <g fill="#544F85" font-family="Roboto-Regular, Roboto" font-size="14">
                        <text transform="translate(11.25 62)">
                            <tspan x="32.733" y="15">2020. 12. 9. </tspan> <tspan x="113.076" y="15" font-family="AppleSDGothicNeo-Regular, Apple SD Gothic Neo">오후</tspan> <tspan x="137.296" y="15"> 7</tspan> <tspan x="148.657" y="15" font-family="AppleSDGothicNeo-Regular, Apple SD Gothic Neo">시</tspan>
                        </text>
                    </g>
                    <rect width="215" height="57" x=".5" y=".5" fill="#F5F5F5" stroke="#8F8ABF" rx="4"/>
                    <g fill="#544F85" font-family="NotoSansCJKkr-Bold, Noto Sans CJK KR" font-size="16" font-weight="bold">
                        <text transform="translate(16.5 16)">
                            <tspan x="30.804" y="19">주민자치 리더교육</tspan>
                        </text>
                    </g>
                </g>
                <g transform="translate(-187 -213) translate(188 213) translate(424 161)">
                    <g fill="#544F85" font-family="Roboto-Regular, Roboto" font-size="14">
                        <text transform="translate(0 62)">
                            <tspan x="36.098" y="15">2020. 12. 11. </tspan> <tspan x="124.322" y="15" font-family="AppleSDGothicNeo-Regular, Apple SD Gothic Neo">오전</tspan> <tspan x="148.542" y="15"> 10</tspan> <tspan x="167.792" y="15" font-family="AppleSDGothicNeo-Regular, Apple SD Gothic Neo">시</tspan>
                        </text>
                    </g>
                    <rect width="215" height="57" x=".5" y=".5" fill="#F5F5F5" stroke="#8F8ABF" rx="4"/>
                    <g fill="#544F85" font-family="NotoSansCJKkr-Bold, Noto Sans CJK KR" font-size="16" font-weight="bold">
                        <text transform="translate(39 16)">
                            <tspan x="23.024" y="19">우수사례 발표</tspan>
                        </text>
                    </g>
                </g>
                <g transform="translate(-187 -213) translate(188 213) translate(808 161)">
                    <g fill="#544F85" font-family="Roboto-Regular, Roboto" font-size="14">
                        <text transform="translate(6 62)">
                            <tspan x="34.042" y="15">2020. 12. 11. </tspan> <tspan x="122.267" y="15" font-family="AppleSDGothicNeo-Regular, Apple SD Gothic Neo">오후</tspan> <tspan x="146.487" y="15"> 3</tspan> <tspan x="157.848" y="15" font-family="AppleSDGothicNeo-Regular, Apple SD Gothic Neo">시</tspan>
                        </text>
                    </g>
                    <rect width="215" height="57" x=".5" y=".5" fill="#F5F5F5" stroke="#8F8ABF" rx="4"/>
                    <g fill="#544F85" font-family="NotoSansCJKkr-Bold, Noto Sans CJK KR" font-size="16" font-weight="bold">
                        <text transform="translate(13.5 16)">
                            <tspan x="31.988" y="19">시상식 박람회 폐막</tspan>
                        </text>
                    </g>
                </g>
                <g>
                    <path stroke="#8F8ABF" stroke-linecap="square" d="M0 4.5L168 4.5" opacity=".4" transform="translate(-187 -213) translate(188 213) translate(256 25)"/>
                    <g transform="translate(-187 -213) translate(188 213) translate(256 25)">
                        <use fill="#000" filter="url(#f21x2sitqa)" xlink:href="#tfmda9twxb"/>
                        <use fill="#8F8ABF" xlink:href="#tfmda9twxb"/>
                    </g>
                </g>
                <g>
                    <path stroke="#8F8ABF" stroke-linecap="square" d="M0 4.5L168 4.5" opacity=".4" transform="translate(-187 -213) translate(188 213) translate(256 185)"/>
                    <g transform="translate(-187 -213) translate(188 213) translate(256 185)">
                        <use fill="#000" filter="url(#3kobez9t0c)" xlink:href="#qzvuxbgkfd"/>
                        <use fill="#8F8ABF" xlink:href="#qzvuxbgkfd"/>
                    </g>
                </g>
                <g>
                    <path stroke="#8F8ABF" stroke-linecap="square" d="M0 4.5L168 4.5" opacity=".4" transform="translate(-187 -213) translate(188 213) translate(640 185)"/>
                    <g transform="translate(-187 -213) translate(188 213) translate(640 185)">
                        <use fill="#000" filter="url(#nh6atebyqe)" xlink:href="#gx9k21gc0f"/>
                        <use fill="#8F8ABF" xlink:href="#gx9k21gc0f"/>
                    </g>
                </g>
                <g>
                    <path stroke="#8F8ABF" stroke-linecap="square" d="M0 4.5L168 4.5" opacity=".4" transform="translate(-187 -213) translate(188 213) translate(640 26)"/>
                    <g transform="translate(-187 -213) translate(188 213) translate(640 26)">
                        <use fill="#000" filter="url(#ectrlrudng)" xlink:href="#97jxwzdvhh"/>
                        <use fill="#8F8ABF" xlink:href="#97jxwzdvhh"/>
                    </g>
                </g>
                <g>
                    <path stroke="#8F8ABF" stroke-linecap="square" d="M1023.811 0H1060c2.21 0 4 1.79 4 4v83c0 2.21-1.79 4-4 4H4c-2.21 0-4 1.79-4 4v61c0 2.21 1.79 4 4 4h33.856" opacity=".4" transform="translate(-187 -213) translate(188 213) translate(0 30)"/>
                    <g transform="translate(-187 -213) translate(188 213) translate(0 30)">
                        <use fill="#000" filter="url(#wil0fbm6ji)" xlink:href="#n44gjgsp3j"/>
                        <use fill="#8F8ABF" xlink:href="#n44gjgsp3j"/>
                    </g>
                </g>
            </g>
        </g>
    </g>
</svg>
