<svg xmlns="http://www.w3.org/2000/svg" xmlns:xlink="http://www.w3.org/1999/xlink" width="41" height="14" viewBox="0 0 41 14">
    <defs>
        <path id="iu0pp5j7ca" d="M15.958 5.512c.836 0 1.704.253 2.294.92v-.9h1.908v8.107h-1.908v-.765c-.704.468-1.45.705-2.24.705-1.203 0-2.197-.381-2.982-1.144-.78-.779-1.17-1.751-1.17-2.916 0-1.145.39-2.099 1.17-2.862.78-.763 1.755-1.145 2.928-1.145zM5.455.234C9.328-.781 11.17 1.686 11.17 4.22c0 2.266-1.861 3.995-3.785 4.104-.584.034-1.069.006-1.61-.093v5.393H3.78V2.853c1.029.059 1.997-.27 1.997-.27v3.849c.966.23 1.554.121 1.942.017.37-.099.718-.324.719-.325.607-.418 1.005-1.126 1.005-1.928 0-1.423-1.187-2.947-3.584-2.248-.885.259-3.264.628-5.86-.144V.063c.018.009 2.382.976 5.456.17zm27.94 3.575V5.53h1.24v1.966h-1.24v6.128h-1.929V7.497h-1.24V5.531h1.24V3.81h1.928zM27.555 5.52c.095 0 .19.004.282.01v1.966h-.299c-1.27 0-2.289 1.03-2.289 2.325v-.2l-.004.079v3.925H23.32V5.53h1.927v.901c.505-.517 1.43-.911 2.31-.911zm11.797.01v8.094h-1.928V5.531h1.928zm-23.401 1.7c-1.27 0-2.3 1.05-2.3 2.345 0 1.295 1.03 2.344 2.3 2.344 1.27 0 2.3-1.05 2.3-2.344 0-1.296-1.03-2.346-2.3-2.346zm22.437-5.51c.694 0 1.256.573 1.256 1.28 0 .707-.562 1.28-1.256 1.28-.693 0-1.255-.573-1.255-1.28 0-.707.562-1.28 1.255-1.28z"/>
    </defs>
    <g fill="#fff" fill-rule="evenodd" opacity=".64">
        <g>
            <g>
                <g>
                    <g transform="translate(-1249 -132) translate(1179 130) translate(70 2) translate(0 .197)">
                        <mask id="koif81k35b" fill="#fff">
                            <use xlink:href="#iu0pp5j7ca"/>
                        </mask>
                        <use fill="#fff" xlink:href="#iu0pp5j7ca"/>
                        <path fill="#fff" d="M0 0H46.646V13.803H0z" mask="url(#koif81k35b)"/>
                    </g>
                </g>
            </g>
        </g>
    </g>
</svg>
