<?xml version="1.0" standalone="no"?>
<!DOCTYPE svg PUBLIC "-//W3C//DTD SVG 20010904//EN"
 "http://www.w3.org/TR/2001/REC-SVG-20010904/DTD/svg10.dtd">
<svg version="1.0" xmlns="http://www.w3.org/2000/svg"
 width="500.000000pt" height="500.000000pt" viewBox="0 0 500.000000 500.000000"
 preserveAspectRatio="xMidYMid meet">
<metadata>
Created by potrace 1.11, written by Peter Selinger 2001-2013
</metadata>
<g transform="translate(0.000000,500.000000) scale(0.100000,-0.100000)"
fill="#000000" stroke="none">
<path d="M2455 4346 c-17 -7 -36 -25 -43 -40 -15 -34 -18 -1410 -2 -1450 10
-27 56 -56 90 -56 34 0 76 27 89 57 8 21 11 216 9 735 l-3 708 -25 25 c-31 31
-76 39 -115 21z"/>
<path d="M2053 4125 c-17 -7 -36 -22 -42 -34 -8 -13 -11 -191 -11 -555 l0
-536 -529 0 c-313 0 -540 -4 -555 -10 -27 -10 -56 -56 -56 -90 0 -33 26 -75
55 -88 19 -9 181 -12 620 -12 l593 0 31 26 31 26 0 610 c0 417 -3 616 -11 630
-9 17 -65 49 -86 48 -4 -1 -22 -7 -40 -15z"/>
<path d="M2863 4125 c-17 -7 -36 -22 -42 -34 -8 -13 -11 -212 -11 -629 l0
-610 31 -26 31 -26 593 0 c439 0 601 3 620 12 29 13 55 55 55 88 0 34 -29 80
-56 90 -15 6 -242 10 -555 10 l-529 0 0 536 c0 364 -3 542 -11 556 -9 17 -65
49 -86 48 -4 -1 -22 -7 -40 -15z"/>
<path d="M1550 3528 c-142 -77 -152 -284 -17 -371 98 -64 212 -42 291 56 27
34 31 48 34 110 3 61 0 79 -21 117 -36 69 -93 104 -175 108 -56 3 -74 0 -112
-20z"/>
<path d="M3270 3539 c-161 -65 -183 -298 -36 -384 158 -93 337 20 324 204 -5
78 -41 131 -111 166 -54 27 -130 33 -177 14z"/>
<path d="M700 2583 c-49 -18 -72 -80 -50 -134 26 -61 1 -59 774 -59 l704 0 31
26 c27 22 31 32 31 74 0 42 -4 52 -31 74 l-31 26 -706 -1 c-389 0 -714 -3
-722 -6z"/>
<path d="M2841 2564 c-27 -22 -31 -32 -31 -74 0 -42 4 -52 31 -74 l31 -26 704
0 c773 0 748 -2 774 59 16 39 6 92 -21 117 -20 18 -51 19 -739 22 l-718 2 -31
-26z"/>
<path d="M911 2186 c-28 -16 -50 -52 -51 -84 0 -35 28 -82 56 -92 15 -6 242
-10 555 -10 l529 0 0 -538 c0 -594 -3 -570 64 -592 41 -13 98 6 115 38 8 14
11 213 11 630 l0 610 -31 26 -31 26 -596 0 c-476 -1 -602 -3 -621 -14z"/>
<path d="M2447 2184 c-15 -8 -32 -26 -37 -40 -6 -15 -10 -305 -10 -725 0 -775
-2 -747 64 -769 43 -14 78 -5 108 27 l23 25 3 706 c2 519 -1 714 -9 735 -21
51 -88 70 -142 41z"/>
<path d="M2841 2174 l-31 -26 0 -610 c0 -417 3 -616 11 -630 17 -32 74 -51
115 -38 67 22 64 -2 64 592 l0 538 529 0 c313 0 540 4 555 10 27 10 56 56 56
90 0 33 -26 75 -55 88 -19 9 -181 12 -620 12 l-593 0 -31 -26z"/>
<path d="M1577 1866 c-90 -33 -139 -106 -138 -208 0 -118 79 -200 200 -206 82
-4 141 23 186 87 38 54 47 157 20 215 -48 100 -164 149 -268 112z"/>
<path d="M3288 1870 c-93 -28 -151 -106 -152 -204 -2 -164 160 -265 308 -192
73 36 108 88 114 167 6 77 -17 136 -68 183 -56 50 -132 67 -202 46z"/>
</g>
</svg>
